<svg enable-background="new 0 0 64 64" height="64" viewBox="0 0 64 64" width="64" xmlns="http://www.w3.org/2000/svg"><path d="m47.562 6.75c-.38-.474-.955-.75-1.562-.75h-28c-.607 0-1.182.276-1.562.75l-16 20c-.637.796-.573 1.943.147 2.664l30 30c.391.391.903.586 1.415.586s1.024-.195 1.414-.586l30-30c.721-.721.784-1.868.147-2.664zm10.276 19.25h-10.35l-4.8-16h2.351zm-41.054 4 10.722 20.677-20.677-20.677zm4.506 0h8.71v16.798zm12.71 0h8.71l-8.71 16.798zm13.216 0h9.956l-20.678 20.677zm-8.704-20 4.8 16h-9.312v-16zm-8.512 16h-9.312l4.8-16h4.512zm-11.039-16h2.351l-4.8 16h-10.35z"/></svg>