<svg fill="none" height="48" viewBox="0 0 48 48" width="48" xmlns="http://www.w3.org/2000/svg"><g clip-rule="evenodd" fill="#333" fill-rule="evenodd"><path d="m11.0392 17.2183c-.4756.2768-.8742.5498-1.18834.7845-.34219.2557-.85823.0372-.84079-.3896.01851-.4528.06658-1.0087.17644-1.5915.17477-.9271.50589-1.9223 1.12309-2.6789-.4552-.8767-.70618-1.8366-.70618-2.8428 0-4.14214 4.25328-7.5 9.49998-7.5s9.5 3.35786 9.5 7.5c0 4.1421-4.2533 7.5-9.5 7.5-2.304 0-4.4165-.6475-6.0613-1.7247-.7675.2816-1.4393.615-2.0029.943zm1.4999-3.9218c.0919.1771.0698.3919-.0563.5465l-.6017.7375c.1536-.0626.3111-.1237.4722-.1828l.7077-.2596c.1484-.0545.3139-.0355.4461.0511l.6307.413c1.3021.8527 3.0299 1.3978 4.9656 1.3978 4.6086 0 7.5-2.8772 7.5-5.5 0-2.62276-2.8914-5.5-7.5-5.5s-7.5 2.87724-7.5 5.5c0 .6661.1647 1.3116.4812 1.9212z"/><path d="m32.1035 10c-1.1521 0-2.1445.2398-2.9566.6265-.7113.3304-1.3112.7766-1.7493 1.3019.1348-.4596.2059-.9377.2059-1.4284 0-.4134-.0505-.81784-.147-1.20984 1.2777-.8079 2.8919-1.29016 4.647-1.29016 4.1421 0 7.5 2.6863 7.5 6 0 .8463-.2191 1.6517-.6143 2.3819-.0881.1629-.0893.3595-.0084.5261.0953.1962.1748.401.241.6083.1805.5653.2624 1.1496.2971 1.6307.0308.4261-.4853.6495-.8354.4048-.3202-.2239-.7262-.4769-1.2086-.7166-.0941-.0467-.1911-.0929-.2909-.1384-.1536-.0698-.3314-.0505-.4745.0388-1.2712.7924-2.8697 1.2644-4.606 1.2644-3.5699 0-6.5573-1.9954-7.3146-4.668.7532-.5186 1.3846-1.1387 1.8571-1.8321-.0281.1638-.0425.3307-.0425.5001 0 1.4176 1.014 2.663 2.5433 3.3735.8121.3867 1.8046.6265 2.9567.6265 3.0275 0 5.4837-1.779 5.4999-3.9781 0-.0073.0001-.0146.0001-.0219 0-.0029 0-.0057 0-.0086-.0041-1.414-1.0171-2.6558-2.5432-3.3648-.8121-.3868-1.8047-.6266-2.9568-.6266z"/><path d="m13 31c1.6579 0 3-1.3421 3-3s-1.3421-3-3-3-3 1.3421-3 3 1.3421 3 3 3zm0 2c2.7625 0 5-2.2375 5-5s-2.2375-5-5-5-5 2.2375-5 5 2.2375 5 5 5z"/><path d="m5.62151 38.7886c-.48599.4893-.62151.8839-.62151 1.2114v1h18v-1c0-.3275-.1355-.7221-.6215-1.2114-.5043-.5077-1.2895-1.0094-2.3027-1.4522-2.0371-.8903-4.5143-1.3364-6.0758-1.3364s-4.03865.4461-6.07582 1.3364c-1.01321.4428-1.79842.9445-2.30267 1.4522zm8.37849-4.7886c-3.6712 0-11 2.01-11 6v3h22v-3c0-3.99-7.3287-6-11-6z"/><path d="m35 31c1.6579 0 3-1.3421 3-3s-1.3421-3-3-3-3 1.3421-3 3 1.3421 3 3 3zm0 2c2.7625 0 5-2.2375 5-5s-2.2375-5-5-5-5 2.2375-5 5 2.2375 5 5 5z"/><path d="m24 29c1.1054 0 2-.8946 2-2s-.8946-2-2-2-2 .8946-2 2 .8946 2 2 2zm0 2c2.21 0 4-1.79 4-4s-1.79-4-4-4-4 1.79-4 4 1.79 4 4 4z"/><path d="m25.6215 38.7886c-.486.4893-.6215.8839-.6215 1.2114v1h18v-1c0-.3275-.1355-.7221-.6215-1.2114-.5043-.5077-1.2895-1.0094-2.3027-1.4522-2.0371-.8903-4.5143-1.3364-6.0758-1.3364s-4.0387.4461-6.0758 1.3364c-1.0132.4428-1.7984.9445-2.3027 1.4522zm8.3785-4.7886c-3.6712 0-11 2.01-11 6v3h22v-3c0-3.99-7.3287-6-11-6z"/><path d="m24 34c-3.3093 0-5.6283 1.5425-6.2929 2.2071l-1.4143-1.4142c1.0021-1.002 3.8164-2.7929 7.7072-2.7929 3.8907 0 6.705 1.7909 7.7071 2.7929l-1.4143 1.4142c-.6646-.6646-2.9836-2.2071-6.2928-2.2071z"/></g></svg>