<svg xmlns="http://www.w3.org/2000/svg" aria-labelledby="logo-large" class="logo logo--large" fill="none" height="111" role="img" viewBox="0 0 189 76" width="275">
  <defs>
    <style type="text/css"><![CDATA[
    .logo__green {
      fill: #3CAA36;
    }
    .logo__blue {
      fill: #39A8E0;
    }
    .logo__orange {
      fill: #F39200;
    }
    .logo__blue {
      fill: #39A8E0;
    }
    ]]></style>
  </defs><path class="logo__green" d="M47.7532 56.409C39.8936 64.2387 29.95 69.1619 19.1729 70.7634C24.7103 73.9071 31.0813 75.6866 37.8692 75.6866C58.8281 75.6866 75.8573 58.7223 75.8573 37.8431C75.8573 25.6241 70.0816 14.8286 61.0907 7.88867C62.1625 11.9815 62.6984 16.1929 62.6984 20.5229C62.6984 34.0469 57.3991 46.7998 47.7532 56.409Z"></path><path class="logo__blue" d="M12.2072 65.6626C37.0364 65.366 57.1022 45.2579 57.1022 20.4639C57.1022 14.4137 55.9114 8.6601 53.7678 3.381C49.3617 1.36426 44.5388 0.177947 39.4181 0C39.7754 1.95742 39.954 3.91484 39.954 5.93158C39.954 25.2685 24.1752 40.9872 4.7644 40.9872C3.15675 40.9872 1.60865 40.8686 0.0605469 40.6906C0.775056 50.537 5.30028 59.3751 12.2072 65.6626Z"></path><path class="logo__orange" d="M0 35.0554C1.5481 35.2927 3.09621 35.4113 4.70385 35.4113C21.0185 35.4113 34.2964 22.2432 34.2964 5.93136C34.2964 3.97394 34.1178 2.01652 33.701 0.177734C15.6001 2.13515 1.30993 16.7861 0 35.0554Z"></path><path class="logo__blue" d="M123.222 62.426L121.12 62.2886C120.51 62.2199 120.103 62.0825 119.832 61.8078C119.56 61.6017 119.425 61.3269 119.425 61.0521C119.425 60.5713 119.56 60.2278 119.899 59.9531C120.238 59.6783 120.781 59.5409 121.527 59.5409C122.205 59.5409 122.815 59.6096 123.358 59.8157C123.9 60.0218 124.443 60.3652 124.917 60.7087L126.477 58.854C125.867 58.3045 125.189 57.8923 124.375 57.5489C123.968 57.4115 123.561 57.2741 123.087 57.2054C122.612 57.1367 122.137 57.068 121.527 57.068C120.171 57.068 119.086 57.4115 118.204 58.0297C117.323 58.7166 116.848 59.6783 116.848 60.9835C116.848 62.0825 117.187 62.9068 117.865 63.525C118.543 64.1433 119.357 64.4867 120.442 64.6241L122.68 64.8302C123.154 64.8302 123.493 64.9676 123.832 65.105C124.104 65.311 124.239 65.5858 124.239 66.0666C124.239 66.6162 124.036 66.9596 123.561 67.2344C123.087 67.5092 122.476 67.6465 121.798 67.6465C120.171 67.6465 118.882 67.097 117.797 65.9979L116.034 67.7839C117.662 69.2952 119.493 70.0508 121.595 70.0508C123.087 70.0508 124.375 69.7073 125.324 69.0204C126.274 68.3335 126.816 67.3718 126.816 66.1353C126.816 65.105 126.545 64.212 126.002 63.525C125.46 62.9068 124.511 62.5634 123.222 62.426ZM132.106 53.4274H129.597V57.2741H128.308V59.1975H129.597V66.8223C129.597 67.8526 129.868 68.6082 130.478 69.1578C131.021 69.7073 131.766 69.9821 132.648 69.9821H133.936V67.5779H132.987C132.377 67.5779 132.106 67.3031 132.106 66.6162V59.1975H133.936V57.2741H132.106V53.4274ZM138.887 58.6479L138.819 57.2741H136.31V69.9821H138.819V62.2886C138.819 61.3269 139.09 60.7087 139.633 60.2965C140.107 59.8844 140.65 59.6783 141.26 59.6783C141.803 59.6783 142.413 59.8844 142.888 60.2965L144.719 58.0984C143.973 57.4802 143.091 57.1367 142.074 57.1367C140.786 57.1367 139.701 57.6176 138.887 58.6479ZM124.578 38.7273C124.578 39.5516 124.375 40.2385 123.9 40.7194C123.426 41.2002 122.815 41.475 122.137 41.475C121.391 41.475 120.781 41.2002 120.374 40.7194C119.899 40.2385 119.628 39.5516 119.628 38.7273V31.1712H117.119V39.6203C117.119 41.0628 117.594 42.1619 118.543 42.8488C119.357 43.6044 120.306 44.0166 121.391 44.0166C122.748 44.0166 123.832 43.5357 124.646 42.5054H124.714V43.8792H127.223V31.1712H124.714V38.7273H124.578ZM139.633 41.8185L137.802 40.1699C137.191 41.0629 136.31 41.475 135.225 41.475C133.055 41.5437 131.97 40.2385 131.97 37.5596C131.97 34.8806 133.123 33.5754 135.225 33.5754C136.31 33.5754 137.124 34.0563 137.802 34.8806L139.633 33.232C139.09 32.5451 138.412 31.9955 137.666 31.6521C136.92 31.2399 136.039 31.0339 135.089 31.0339C133.597 31.0339 132.309 31.5147 131.156 32.5451C130.003 33.5754 129.393 35.2927 129.393 37.5596C129.393 39.8264 130.003 41.475 131.156 42.5054C132.309 43.5357 133.597 44.0166 135.089 44.0166C136.039 44.0166 136.92 43.8105 137.666 43.3984C138.412 42.9862 139.09 42.5054 139.633 41.8185ZM100.234 6.5796C99.8949 6.16745 99.4202 5.7553 98.8099 5.41184C98.1996 5.06838 97.3858 4.931 96.3686 4.931C95.4193 4.931 94.6055 5.13707 93.9952 5.41184C93.3849 5.7553 92.9102 6.09876 92.5712 6.5796C92.0965 7.06044 91.7574 7.67866 91.554 8.36558C91.3505 9.0525 91.2149 10.0829 91.2149 11.4567C91.2149 12.8305 91.3505 13.7922 91.554 14.5478C91.7574 15.2348 92.0965 15.853 92.5712 16.4025C92.9102 16.8147 93.3849 17.1581 93.9952 17.5016C94.6055 17.845 95.4193 18.0511 96.3686 18.0511C97.3858 18.0511 98.1317 17.845 98.8099 17.5016C99.1489 17.3642 99.4202 17.1581 99.6236 16.952C99.827 16.746 100.03 16.6086 100.234 16.4025C100.709 15.853 101.115 15.3034 101.319 14.5478C101.522 13.8609 101.59 12.8305 101.59 11.4567C101.59 10.0829 101.455 9.0525 101.251 8.36558C101.048 7.60997 100.709 7.06044 100.234 6.5796ZM98.9455 13.3801C98.8777 13.7922 98.6742 14.1357 98.4708 14.4791C98.2674 14.7539 97.9961 14.96 97.6571 15.0974C97.318 15.3034 96.9111 15.3721 96.4364 15.3721C96.0296 15.3721 95.6227 15.3034 95.2836 15.0974C94.9446 14.8913 94.6733 14.6852 94.4699 14.4791C94.2665 14.1357 94.063 13.7922 93.9952 13.3801C93.9274 12.9679 93.8596 12.3497 93.8596 11.4567C93.8596 10.5637 93.9274 9.94549 93.9952 9.46465C94.063 9.0525 94.2665 8.70904 94.4699 8.43427C94.6733 8.15951 94.9446 7.95343 95.2836 7.74736C95.6227 7.60997 96.0296 7.47259 96.4364 7.47259C96.9111 7.47259 97.318 7.54128 97.6571 7.74736C97.9961 7.88474 98.2674 8.15951 98.4708 8.43427C98.742 8.70904 98.8777 9.12119 98.9455 9.46465C99.0133 9.8768 99.0811 10.5637 99.0811 11.4567C99.0133 12.3497 99.0133 12.9679 98.9455 13.3801ZM111.762 64.8302C111.762 65.6545 111.559 66.3414 111.084 66.8223C110.609 67.3031 109.999 67.5779 109.321 67.5779C108.575 67.5779 107.964 67.3031 107.558 66.8223C107.083 66.3414 106.812 65.6545 106.812 64.8302V57.2741H104.303V65.7232C104.303 67.1657 104.777 68.2648 105.727 68.9517C106.54 69.7073 107.49 70.1194 108.575 70.1194C109.931 70.1194 111.016 69.6386 111.83 68.6082H111.898V69.9821H114.407V57.2741H111.898V64.8302H111.762ZM113.389 6.5796C112.711 5.48053 111.559 4.931 109.999 4.931C108.643 4.99969 107.625 5.48053 106.744 6.44221V5.13707H104.235V22.9969H106.744V16.4712C107.219 16.9521 107.693 17.2955 108.236 17.5703C108.778 17.845 109.321 17.9824 109.999 17.9824C110.813 17.9824 111.423 17.7764 112.033 17.5016C112.576 17.2268 113.05 16.8147 113.389 16.3338C113.729 15.9217 114 15.3721 114.135 14.7539C114.271 14.067 114.339 13.0366 114.339 11.5254C114.339 10.0142 114.271 8.91512 114.135 8.2282C113.932 7.54128 113.729 6.99175 113.389 6.5796ZM111.694 12.8305C111.626 13.3114 111.559 13.7235 111.355 14.1357C111.219 14.4791 110.948 14.8226 110.609 15.0287C110.27 15.2348 109.795 15.3721 109.185 15.3721C108.643 15.3721 108.168 15.2348 107.829 15.0287C107.49 14.8226 107.219 14.4791 107.083 14.067C106.947 13.6548 106.812 13.2427 106.812 12.7619C106.744 12.281 106.744 11.8689 106.744 11.388C106.744 10.9072 106.744 10.4263 106.812 9.94549C106.879 9.46465 106.947 9.0525 107.083 8.70904C107.219 8.29689 107.49 8.02212 107.829 7.74736C108.168 7.54128 108.575 7.4039 109.185 7.4039C109.795 7.4039 110.27 7.47259 110.609 7.67866C110.948 7.88474 111.219 8.2282 111.355 8.57166C111.491 8.91512 111.626 9.39596 111.694 9.8768C111.694 10.3576 111.694 10.8385 111.694 11.388C111.762 11.9376 111.694 12.4184 111.694 12.8305ZM111.762 32.5451C111.287 32.0642 110.813 31.7208 110.27 31.446C109.728 31.1712 109.117 31.0339 108.507 31.0339C106.947 31.1025 105.862 31.6521 105.116 32.6825C104.777 33.0946 104.506 33.6441 104.438 34.2624C104.303 34.8806 104.235 35.9797 104.235 37.4909C104.235 39.0021 104.303 40.1012 104.438 40.7194C104.574 41.4063 104.777 41.9558 105.116 42.368C105.523 42.8488 105.998 43.261 106.54 43.5357C107.083 43.8105 107.761 44.0166 108.507 44.0166C109.863 44.0166 110.948 43.4671 111.762 42.5054V43.8105H114.271V25.9507H111.762V32.5451ZM111.694 38.9334C111.626 39.4142 111.559 39.8264 111.355 40.2385C111.219 40.6507 111.016 40.9255 110.609 41.2002C110.27 41.475 109.795 41.5437 109.185 41.5437C108.575 41.5437 108.1 41.4063 107.829 41.2002C107.49 40.9942 107.219 40.6507 107.083 40.3072C106.947 39.8951 106.812 39.4829 106.812 39.0021C106.744 38.5213 106.744 38.1091 106.744 37.5596C106.744 37.0787 106.744 36.5292 106.812 36.0484C106.879 35.5675 106.947 35.1554 107.083 34.8119C107.219 34.3997 107.49 34.125 107.829 33.9189C108.168 33.7128 108.575 33.6441 109.185 33.6441C109.795 33.6441 110.27 33.7815 110.609 33.9876C110.948 34.1937 111.219 34.5371 111.355 34.9493C111.491 35.3614 111.626 35.7736 111.694 36.1857C111.694 36.6666 111.694 37.0787 111.694 37.6283C111.762 37.9717 111.694 38.4526 111.694 38.9334ZM99.488 58.0297C98.5386 57.4115 97.2502 57.1367 95.6905 57.1367C93.7918 57.1367 92.4355 57.7549 91.4184 58.9914L93.3849 60.5026C93.5883 60.1591 93.9274 59.8844 94.2665 59.747C94.6055 59.6096 95.148 59.5409 95.7583 59.5409C97.5214 59.5409 98.3352 60.0218 98.3352 61.1895V62.4947H94.809C93.4527 62.4947 92.4355 62.9068 91.7574 63.5937C91.0793 64.2806 90.7402 65.1736 90.7402 66.2727C90.7402 67.3718 91.1471 68.3335 91.9609 69.0204C92.7068 69.776 93.7918 70.1194 95.2158 70.1194C96.0974 70.1194 96.7077 69.9821 97.2502 69.776C97.7249 69.5699 98.1317 69.2265 98.3352 68.8143H98.403V69.9134H100.912V61.1895C100.912 59.747 100.437 58.6479 99.488 58.0297ZM98.403 65.5171C98.403 66.4788 98.1996 67.097 97.7927 67.3718C97.3858 67.6465 96.6399 67.7839 95.5549 67.7839C94.7411 67.7839 94.1308 67.6465 93.724 67.3031C93.3171 67.0283 93.1815 66.6162 93.1815 66.204C93.1815 65.2423 93.8596 64.6928 95.3515 64.6928H98.403V65.5171ZM153.941 40.7881C153.941 41.8185 154.212 42.5741 154.823 43.1236C155.365 43.6731 156.111 43.9479 156.993 43.9479H158.281V41.5437H157.332C156.721 41.5437 156.45 41.2689 156.45 40.582V33.1633H158.281V31.2399H156.45V27.3932H153.941V31.2399H152.653V33.1633H153.941V40.7881ZM118.272 16.6773C118.543 16.8834 118.814 17.0894 119.153 17.2268C119.425 17.4329 119.764 17.5703 120.103 17.639C120.713 17.845 121.391 17.9137 122.069 17.9137C123.832 17.9137 125.324 17.2268 126.613 15.853L124.782 14.2731C123.968 15.0974 123.087 15.5095 122.002 15.5095C121.12 15.5095 120.442 15.2348 119.899 14.6852C119.289 14.1357 119.018 13.3801 119.018 12.3497H126.816V10.2203C126.816 8.57166 126.274 7.19782 125.257 6.30483C124.239 5.34315 123.019 4.8623 121.595 4.8623C120.984 4.8623 120.374 4.99969 119.764 5.20576C119.153 5.41184 118.611 5.7553 118.068 6.30483C117.594 6.78567 117.187 7.47259 116.848 8.29689C116.509 9.12119 116.373 10.1516 116.373 11.4567C116.373 12.7619 116.577 13.8609 116.916 14.6165C117.323 15.5095 117.797 16.1964 118.272 16.6773ZM119.764 8.09081C120.238 7.60997 120.849 7.33521 121.595 7.33521C122.341 7.33521 122.951 7.60997 123.426 8.09081C123.9 8.57166 124.172 9.32727 124.239 10.3576H118.95C119.018 9.32727 119.289 8.57166 119.764 8.09081ZM96.3686 31.0339C95.7583 31.0339 95.148 31.1712 94.5377 31.3773C93.9274 31.5834 93.3849 31.9268 92.8424 32.4764C92.3677 32.9572 91.9609 33.6441 91.6218 34.4684C91.2827 35.2927 91.1471 36.3231 91.1471 37.6283C91.1471 38.9334 91.3505 40.0325 91.6896 40.7881C92.0287 41.6124 92.4355 42.2993 92.978 42.7801C93.2493 42.9862 93.5205 43.1923 93.8596 43.3297C94.1308 43.5358 94.4699 43.6731 94.809 43.7418C95.4193 43.9479 96.0974 44.0166 96.7755 44.0166C98.5386 44.0166 100.03 43.3297 101.319 41.9558L99.488 40.3759C98.6742 41.2002 97.7927 41.6124 96.7077 41.6124C95.8261 41.6124 95.148 41.3376 94.6055 40.7881C93.9952 40.2385 93.724 39.4829 93.724 38.4526H101.522V36.3231C101.522 34.6745 100.98 33.3007 99.9627 32.4077C99.0133 31.5147 97.7927 31.0339 96.3686 31.0339ZM93.724 36.3918C93.7918 35.4301 94.063 34.6745 94.5377 34.125C95.0124 33.6441 95.6227 33.3694 96.3686 33.3694C97.1146 33.3694 97.7249 33.6441 98.1996 34.125C98.6742 34.6058 98.9455 35.3614 99.0133 36.3918H93.724ZM185.813 34.2624C186.287 34.7432 186.491 35.4301 186.491 36.3231V43.8792H189V35.4301C188.932 33.9876 188.525 32.8885 187.644 32.1329C186.762 31.3773 185.813 31.0339 184.796 31.0339C183.439 31.0339 182.354 31.5147 181.541 32.5451H181.473V31.1712H178.964V43.8792H181.473V36.3231C181.473 35.4301 181.744 34.7432 182.219 34.2624C182.693 33.7815 183.304 33.5754 183.982 33.5754C184.795 33.5754 185.338 33.8502 185.813 34.2624ZM160.722 28.561H163.231V26.0194H160.722V28.561ZM174.963 32.6825C174.624 32.2703 174.149 31.8582 173.539 31.5147C172.928 31.1712 172.115 31.0339 171.097 31.0339C170.148 31.0339 169.334 31.2399 168.724 31.5147C168.114 31.8582 167.639 32.2016 167.3 32.6825C166.825 33.1633 166.486 33.7815 166.283 34.4684C166.079 35.1554 165.944 36.1857 165.944 37.5596C165.944 38.9334 166.079 39.8951 166.283 40.6507C166.486 41.3376 166.825 41.9558 167.3 42.5054C167.639 42.9175 168.114 43.261 168.724 43.6044C169.334 43.9479 170.148 44.154 171.097 44.154C172.115 44.154 172.861 43.9479 173.539 43.6044C173.878 43.4671 174.149 43.261 174.352 43.0549C174.556 42.8488 174.759 42.7114 174.963 42.5054C175.437 41.9558 175.844 41.4063 176.048 40.6507C176.251 39.9638 176.319 38.9334 176.319 37.5596C176.319 36.1857 176.251 35.1554 176.048 34.4684C175.844 33.7128 175.505 33.1633 174.963 32.6825ZM173.674 39.4829C173.606 39.8951 173.403 40.2385 173.2 40.582C172.996 40.8568 172.725 41.0629 172.386 41.2002C172.047 41.4063 171.64 41.475 171.165 41.475C170.758 41.475 170.352 41.4063 170.012 41.2002C169.673 40.9942 169.402 40.7881 169.199 40.582C168.995 40.2385 168.792 39.8951 168.724 39.4829C168.656 39.0708 168.588 38.4526 168.588 37.5596C168.588 36.6666 168.656 36.0483 168.724 35.5675C168.792 35.1554 168.995 34.8119 169.199 34.5371C169.402 34.2624 169.673 34.0563 170.012 33.8502C170.352 33.7128 170.758 33.5754 171.165 33.5754C171.64 33.5754 172.047 33.6441 172.386 33.8502C172.725 33.9876 172.996 34.2624 173.2 34.5371C173.471 34.8119 173.606 35.224 173.674 35.5675C173.742 35.9797 173.81 36.6666 173.81 37.5596C173.81 38.4526 173.81 39.0708 173.674 39.4829ZM146.007 69.9821H148.516V57.2741H146.007V69.9821ZM146.007 54.6638H148.516V52.1222H146.007V54.6638ZM131.97 10.2203C131.97 9.32726 132.241 8.64035 132.716 8.15951C133.191 7.67867 133.801 7.47259 134.479 7.47259C135.225 7.47259 135.767 7.67867 136.242 8.15951C136.717 8.64035 136.92 9.32726 136.92 10.2203V17.7763H139.429V9.32727C139.361 7.88474 138.955 6.78567 138.073 6.03006C137.191 5.27445 136.242 4.931 135.225 4.931C133.869 4.931 132.784 5.41184 131.97 6.44221H131.902V5.06838H129.393V17.7763H131.902V10.2203H131.97ZM159.569 58.0297C158.62 57.4115 157.332 57.1367 155.772 57.1367C153.873 57.1367 152.517 57.7549 151.5 58.9914L153.466 60.5026C153.67 60.1591 154.009 59.8844 154.348 59.747C154.687 59.6096 155.229 59.5409 155.84 59.5409C157.603 59.5409 158.417 60.0218 158.417 61.1895V62.4947H154.89C153.534 62.4947 152.517 62.9068 151.839 63.5937C151.161 64.2806 150.822 65.1736 150.822 66.2727C150.822 67.3718 151.229 68.3335 152.042 69.0204C152.788 69.776 153.873 70.1194 155.297 70.1194C156.179 70.1194 156.789 69.9821 157.332 69.776C157.806 69.5699 158.213 69.2265 158.417 68.8143H158.484V69.9134H160.993V61.1895C160.993 59.747 160.519 58.6479 159.569 58.0297ZM158.484 65.5171C158.484 66.4788 158.281 67.097 157.874 67.3718C157.467 67.6465 156.721 67.7839 155.636 67.7839C154.823 67.7839 154.212 67.6465 153.805 67.3031C153.399 67.0283 153.263 66.6162 153.263 66.204C153.263 65.2423 153.941 64.6928 155.433 64.6928H158.484V65.5171ZM149.059 31.9268C148.109 31.3086 146.821 31.0339 145.261 31.0339C143.362 31.0339 142.006 31.6521 140.989 32.8885L142.955 34.3998C143.159 34.0563 143.498 33.7815 143.837 33.6441C144.176 33.5068 144.719 33.4381 145.329 33.4381C147.092 33.4381 147.906 33.9189 147.906 35.0867V36.3918H144.38C143.023 36.3918 142.006 36.804 141.328 37.4909C140.65 38.1778 140.311 39.0708 140.311 40.1699C140.311 41.2689 140.718 42.2306 141.531 42.9175C142.277 43.6731 143.362 44.0166 144.786 44.0166C145.668 44.0166 146.278 43.8792 146.821 43.6731C147.295 43.4671 147.702 43.1236 147.906 42.7114H147.974V43.8105H150.483V35.0867C150.483 33.6441 150.008 32.5451 149.059 31.9268ZM147.974 39.4142C147.974 40.3759 147.77 40.9942 147.363 41.2689C146.956 41.5437 146.21 41.6811 145.125 41.6811C144.312 41.6811 143.701 41.5437 143.295 41.2002C142.888 40.9255 142.752 40.5133 142.752 40.1012C142.752 39.1395 143.43 38.5899 144.922 38.5899H147.974V39.4142ZM160.722 43.8792H163.231V31.1712H160.722V43.8792Z"></path><title id="logo-large">Open Education Austria</title></svg>
