<svg enable-background="new 0 0 64 64" height="64" viewBox="0 0 64 64" width="64" xmlns="http://www.w3.org/2000/svg"><path d="m32 0c-27.377 0-31.93 25.415-31.973 25.671-.097.58.066 1.173.447 1.622.38.448.938.707 1.526.707h28v30c0 3.309 2.691 6 6 6s6-2.691 6-6c0-1.104-.896-2-2-2s-2 .896-2 2c0 1.103-.897 2-2 2s-2-.897-2-2v-30h28c.007-.001.013 0 .02 0 1.104 0 2-.896 2-2 0-.234-.041-.459-.115-.669-.645-3.04-6.265-25.331-31.905-25.331zm-27.455 24c1.712-5.749 7.927-20 27.455-20s25.743 14.251 27.455 20z"/></svg>